PathFileType	4	(X/Y/Z)	C:\Users\WrightLab\Desktop\Jo\P1_boxCal3.trc
DataRate	CameraRate	NumFrames	NumMarkers	Units	OrigDataRate	OrigDataStartFrame	OrigNumFrames
100.00	100.00	       36	19	mm	100.00	241	       960
Frame#	Time	Headset_Front			Headset_Back			Headset_Left			Headset_Right			Left_Shoulder			Right_Shoulder			Sternum			C7			Left Elbow			Right Elbow			Left Wrist			Right Wrist			Left ASIS			Right ASIS			S2			Left Knee			Right Knee			Left Ankle			Right Ankle			
		X1	Y1	Z1	X2	Y2	Z2	X3	Y3	Z3	X4	Y4	Z4	X5	Y5	Z5	X6	Y6	Z6	X7	Y7	Z7	X8	Y8	Z8	X9	Y9	Z9	X10	Y10	Z10	X11	Y11	Z11	X12	Y12	Z12	X13	Y13	Z13	X14	Y14	Z14	X15	Y15	Z15	X16	Y16	Z16	X17	Y17	Z17	X18	Y18	Z18	X19	Y19	Z19	

241	2.400																																																										
242	2.410																																																										
243	2.420																																																										
244	2.430																																																										
245	2.440																																																										
246	2.450																																																										
247	2.460																																																										
248	2.470																																																										
249	2.480																																																										
250	2.490																																																										
251	2.500																																																										
252	2.510																																																										
253	2.520																																																										
254	2.530																																																										
255	2.540																																																										
256	2.550																																																										
257	2.560																																																										
258	2.570																																																										
259	2.580																																																										
260	2.590																																																										
261	2.600																																																										
262	2.610																																																										
263	2.620																																																										
264	2.630																																																										
265	2.640																																																										
266	2.650																																																										
267	2.660																																																										
268	2.670																																																										
269	2.680																																																										
270	2.690																																																										
271	2.700																																																										
272	2.710																																																										
273	2.720																																																										
274	2.730																																																										
275	2.740	-718.28595	1355.38379	-779.08856	-706.37738	1496.13025	-1054.79712	-601.56500	1422.68628	-936.23798	-821.57404	1397.12732	-884.50531	-519.98981	1266.73328	-1015.49847	-891.47949	1246.62805	-1014.91217	-725.08606	1142.86841	-883.83704	-691.61096	1259.69006	-1127.95117	-437.54123	950.73138	-1068.16760	-973.70349	980.24939	-1088.37500	-378.84747	758.95728	-980.17706	-1050.88904	748.69965	-1025.01221	-629.44604	865.59650	-855.88129	-825.45380	863.57782	-897.72211	-662.50299	870.84247	-1181.57703	-530.61157	445.45987	-837.36951	-882.89801	420.46561	-1004.70508	-501.48389	175.28093	-1070.45813	-851.48419	52.85135	-1032.92358	
276	2.750	-721.15186	1357.23486	-771.96063	-709.13727	1497.23816	-1047.34082	-604.32233	1424.05725	-931.36847	-823.07092	1399.44373	-876.31958	-523.20056	1267.59180	-1010.42389	-894.49243	1247.95789	-1007.16638	-729.59021	1145.07446	-877.64606	-695.66748	1260.57629	-1120.54102	-441.23306	951.81024	-1063.54907	-978.62170	981.44769	-1077.34998	-381.11618	759.08704	-975.05304	-1055.71155	750.74048	-1009.99304	-630.50720	866.32153	-849.04388	-828.17993	865.31372	-890.68469	-666.03131	872.41718	-1175.88855	-536.24603	450.15283	-826.72552	-883.07599	419.26050	-998.94128	-512.29132	167.47066	-1047.60889	-851.38879	53.02895	-1032.59753	
